<svg width="40" height="40" viewBox="0 0 40 40" fill="none" xmlns="http://www.w3.org/2000/svg">
<g clip-path="url(#clip0_4087_312)">
<path d="M20 40C31.0457 40 40 31.0457 40 20C40 8.95431 31.0457 0 20 0C8.9543 0 0 8.95431 0 20C0 31.0457 8.9543 40 20 40Z" fill="white"/>
<path d="M3.96783 10.2267L7.4766 10.7363C6.60147 12.1514 4.81562 11.346 3.46658 10.9912C2.72871 12.3998 0.903205 15.9823 1.72901 17.563C2.39214 18.8323 4.35912 19.2892 5.41531 20.1531C6.25526 20.8401 6.53398 22.0084 6.97535 22.9677L1.21094 19.4002C1.2394 22.5975 5.30447 23.9958 7.72723 25.5159L6.97535 23.2225C11.315 25.9454 16.716 28.0774 21.8686 28.5053L23.4743 28.1182C17.8911 27.3531 6.47452 23.8234 6.47409 17.1068C6.47401 15.7024 6.28506 13.5525 7.46466 12.5172C8.39867 11.6974 10.3089 11.7745 11.4866 11.4611C14.3506 10.6988 16.9863 9.71783 20.0079 10.0151C22.7911 10.289 24.9888 11.2372 27.7334 11.6133C28.3918 12.0428 29.3436 12.17 28.2723 12.6728L17.8 9.29969L7.4766 10.7363C8.52886 8.72992 9.32004 6.65848 11.236 5.29564C15.6061 2.18715 25.7139 2.47704 30.033 5.55046C31.476 6.57732 32.4941 8.10774 33.2128 9.71705C33.551 10.4743 33.7171 11.7549 34.4215 12.2582C35.1096 12.7499 36.4762 12.6192 37.3012 12.7749C32.3572 -1.72901 11.1045 -2.7912 3.96783 10.2267ZM34.2936 13.5394L34.5443 19.9099L38.8049 21.4388C38.8046 18.179 38.9699 12.134 34.2936 13.5394ZM12.0353 15.7671C9.85723 16.7437 11.5841 20.3657 13.818 19.2185C16.1714 18.01 14.4094 14.7026 12.0353 15.7671ZM27.0402 15.84C24.805 17.0715 26.7619 20.6775 28.9769 19.319C31.0989 18.0176 29.2429 14.6264 27.0402 15.84ZM34.043 21.9484C33.8346 26.8084 29.6774 32.113 26.023 34.9443L25.3286 35.5521C26.7626 35.5561 29.4305 35.9303 30.7849 35.4673C35.2555 33.9387 37.4273 27.2903 38.5543 23.2225L34.043 21.9484ZM1.46156 23.2225C2.26424 26.1198 3.17549 30.3796 5.76573 32.2423C6.78884 32.9781 8.75786 32.76 9.98287 32.9391C12.3074 33.2789 14.9962 34.7281 17.2706 35.263C14.0561 30.6362 6.87195 24.8072 1.46156 23.2225ZM6.97535 33.4153C11.569 39.9901 22.9974 40.3315 29.3777 36.6398C25.7752 34.8795 22.228 37.7603 18.7548 37.5222C17.2894 37.4217 15.5676 35.9146 14.2435 35.2649C11.9808 34.1547 9.48413 33.5249 6.97535 33.4153Z" fill="#070707"/>
<path d="M27.4665 11.953C24.4625 11.1177 24.0652 10.8946 22.5144 10.4458C20.3756 9.82676 18.7116 9.46668 16.2487 9.82622C14.9914 10.0098 13.6962 10.3673 12.4893 10.7427C11.7233 10.9809 11.0212 11.1755 10.2337 11.3085C9.52892 11.4276 8.66225 11.6021 7.9916 11.2387C6.87913 10.636 6.53045 10.1859 6.84831 8.95263C7.00283 8.35309 7.72814 7.4597 7.96163 7.16987C8.79798 6.13172 9.85231 4.9923 11.4868 4.22312C12.9677 3.52628 14.2267 3.19718 15.7475 2.88787C17.4198 2.54775 19.7665 2.18999 21.5119 2.40005C24.8666 2.80382 28.6498 3.69193 31.2827 5.91897C33.119 7.47229 33.8835 9.35348 35.0457 11.246M7.72744 11.246C5.91701 12.9364 5.52814 13.0276 5.09934 13.5836C4.91667 13.8205 4.48966 14.3635 4.4604 15.578C4.43632 16.5771 4.715 17.0658 4.83092 17.3617C5.18328 18.2612 5.47971 18.7496 6.26565 20.4195C6.58111 21.0898 7.05071 21.9056 7.524 22.4579C8.41269 23.4949 9.98897 24.5696 11.2362 25.198C13.0064 26.0899 14.74 26.614 16.4994 27.1098C17.7948 27.4748 19.613 27.8728 21.0106 28.0642M36.0482 15.578C36.3756 18.2094 37.2834 19.2521 37.8026 19.9099M12.74 17.6165V17.8713M27.7776 17.8713H28.0282M1.7124 20.6744C2.44876 21.5124 2.70436 21.7182 3.71761 22.4056C5.77069 23.7985 5.64669 22.8987 6.78245 24.3787M7.47681 22.7129L6.47431 23.7322M1.96303 24.2419C2.78227 25.1462 3.61549 26.1442 4.96687 27.5545C5.31032 27.9129 6.0775 28.9039 6.99799 29.7348C7.94584 30.5905 9.07964 30.9951 9.73245 31.2687C11.8744 32.1663 14.3052 33.137 16.2487 34.6895M35.7976 24.7515C35.1146 27.1808 33.865 29.4815 32.249 31.3768C31.5048 32.2497 30.6467 33.3034 30.0233 33.7793C28.4675 34.9672 27.4027 34.8258 26.2738 35.1991M7.72744 33.925C9.15798 34.8462 11.1966 35.5679 13.9931 36.9162C15.4704 37.6285 16.9369 38.3017 18.5044 38.4674C19.8233 38.6067 21.5046 37.9254 22.765 37.6671C25.3855 37.13 27.7907 36.7643 28.5294 36.7622" stroke="#070707"/>
</g>
<defs>
<clipPath id="clip0_4087_312">
<rect width="40" height="40" fill="white"/>
</clipPath>
</defs>
</svg>
